<?xml version="1.0" standalone="no"?>
<!DOCTYPE svg PUBLIC "-//W3C//DTD SVG 20010904//EN"
 "http://www.w3.org/TR/2001/REC-SVG-20010904/DTD/svg10.dtd">
<svg version="1.0" xmlns="http://www.w3.org/2000/svg"
 width="500.000000pt" height="500.000000pt" viewBox="0 0 500.000000 500.000000"
 preserveAspectRatio="xMidYMid meet">

<g transform="translate(0.000000,500.000000) scale(0.100000,-0.100000)"
fill="#000000" stroke="none">
<path d="M0 2500 l0 -2500 2500 0 2500 0 0 2500 0 2500 -2500 0 -2500 0 0
-2500z m1827 2248 c54 -79 117 -172 139 -208 106 -169 129 -202 168 -238 165
-152 410 -191 606 -95 111 54 186 135 284 306 84 148 120 197 217 301 l61 66
58 -45 c109 -84 168 -145 234 -243 188 -280 276 -547 305 -923 6 -75 15 -127
26 -149 10 -19 56 -77 102 -130 156 -176 304 -422 377 -628 36 -102 42 -167
22 -230 -14 -40 -15 -56 -6 -72 51 -95 75 -255 60 -391 -14 -126 -56 -246
-149 -424 -234 -449 -526 -803 -894 -1081 -192 -145 -262 -175 -331 -139 -15
8 -33 15 -38 15 -5 0 -67 -40 -136 -88 -165 -114 -239 -160 -342 -212 l-84
-42 -73 36 c-97 48 -210 118 -366 228 l-128 90 -33 -16 c-60 -28 -97 -24 -179
24 -141 80 -348 250 -505 414 -224 235 -395 482 -547 790 -132 268 -147 313
-153 444 -4 98 -2 109 34 223 31 98 36 124 26 137 -42 58 -40 88 18 262 76
231 180 414 357 625 131 157 143 182 155 320 25 293 78 496 184 709 85 172
191 314 309 418 55 48 105 88 111 88 6 0 56 -64 111 -142z"/>
<path d="M1613 4668 c-84 -86 -165 -205 -233 -343 -93 -190 -142 -381 -159
-616 -14 -194 -34 -241 -166 -394 -168 -195 -289 -402 -359 -617 -44 -133 -47
-161 -21 -166 51 -10 51 -13 -22 -232 -33 -97 -35 -112 -30 -190 6 -86 24
-160 39 -160 4 0 8 9 8 20 0 40 114 320 125 308 2 -1 -5 -41 -15 -86 -23 -106
-34 -237 -25 -292 l7 -42 80 78 c59 58 78 72 72 54 -30 -102 -54 -200 -54
-225 0 -16 9 -48 19 -70 l18 -40 15 30 c18 33 65 79 117 115 29 20 34 21 28 6
-59 -154 -78 -313 -53 -445 15 -79 20 -90 85 -175 197 -257 465 -505 686 -636
34 -20 29 -12 -38 56 -44 43 -101 115 -128 159 -50 81 -65 120 -28 75 102
-125 131 -158 179 -198 l54 -47 -57 70 c-56 68 -137 211 -137 243 0 8 19 -7
43 -34 135 -155 258 -281 325 -331 115 -87 368 -253 448 -296 l72 -37 58 31
c86 45 140 80 329 210 171 118 247 187 439 399 48 53 66 68 61 50 -10 -37 -82
-168 -117 -214 l-32 -41 43 40 c23 22 66 70 94 107 28 37 53 66 55 64 7 -8
-47 -103 -93 -163 -25 -35 -74 -87 -107 -118 -34 -30 -57 -55 -52 -55 6 0 40
20 76 44 201 131 448 358 606 554 125 156 131 168 149 273 18 113 13 170 -26
309 -16 58 -28 107 -26 109 13 12 145 -112 145 -136 0 -32 21 -9 35 39 14 48
14 57 -4 132 -11 45 -27 101 -35 125 -9 24 -15 46 -13 48 2 2 36 -33 76 -77
40 -44 77 -80 83 -80 17 0 2 262 -20 352 -10 43 -16 75 -12 73 12 -8 97 -207
116 -271 16 -55 17 -57 27 -34 6 14 11 90 12 170 0 126 -3 152 -22 200 -12 30
-30 79 -41 109 l-20 53 25 37 c32 47 26 90 -32 234 -80 199 -193 379 -349 554
-111 125 -125 160 -142 352 -15 173 -33 275 -70 399 -69 232 -222 494 -351
605 l-56 48 -27 -26 c-18 -17 -30 -42 -34 -68 -9 -55 -55 -209 -67 -221 -12
-13 -11 -10 5 96 7 48 9 85 5 83 -19 -13 -57 -95 -63 -139 -3 -27 -14 -75 -24
-105 l-17 -56 -5 55 -5 55 -21 -35 c-11 -19 -26 -57 -34 -85 -7 -27 -26 -77
-41 -110 l-29 -60 6 58 6 59 -57 -46 c-249 -204 -608 -191 -847 29 l-41 38 7
-49 c4 -27 9 -57 12 -66 3 -10 1 -18 -4 -18 -11 0 -53 103 -77 190 -8 30 -25
69 -36 85 l-21 30 6 -65 c4 -46 3 -61 -5 -53 -13 13 -49 146 -49 180 0 23 -49
108 -57 99 -2 -2 1 -41 8 -85 6 -45 9 -84 6 -87 -7 -7 -42 101 -66 204 -20 84
-34 112 -55 112 -6 0 -44 -33 -83 -72z m42 -385 c173 -129 360 -315 405 -404
l34 -66 66 23 c36 13 93 26 126 30 l59 6 -73 -45 c-203 -128 -344 -278 -401
-430 -14 -36 -5 -35 13 2 18 34 114 141 127 141 5 0 -14 -34 -41 -77 -47 -70
-89 -177 -76 -190 13 -14 32 8 44 51 10 40 78 133 89 123 2 -2 -8 -24 -22 -49
-32 -58 -45 -138 -21 -138 9 0 16 8 16 18 0 10 7 27 15 38 13 18 14 16 15 -28
0 -38 4 -48 20 -53 31 -10 81 -55 92 -84 l10 -26 15 35 c14 33 13 81 -4 127
-13 37 58 -42 82 -92 45 -92 43 -177 -7 -287 -12 -27 -24 -48 -28 -48 -4 0
-44 25 -90 56 -111 74 -213 124 -255 126 -18 1 -46 -7 -62 -17 -72 -46 -163
-118 -163 -129 0 -18 105 -131 144 -155 30 -19 49 -21 202 -21 191 0 206 -5
224 -68 5 -20 10 -81 10 -136 l0 -98 40 48 c99 119 172 241 238 394 10 24 11
24 11 3 2 -56 140 -289 235 -398 l35 -40 1 90 c2 117 17 176 50 192 17 9 77
13 188 13 123 0 170 4 191 15 27 14 161 151 161 164 -1 10 -125 99 -175 126
-39 20 -50 22 -82 13 -54 -15 -114 -47 -222 -118 l-94 -62 -18 24 c-28 36 -53
128 -53 190 1 64 44 166 88 207 l24 23 -5 -60 c-6 -61 1 -112 15 -112 4 0 13
13 19 30 7 18 29 41 57 57 42 26 45 31 46 71 0 50 16 56 28 10 4 -17 14 -34
22 -36 20 -7 6 92 -20 135 -11 20 -18 38 -14 42 12 12 65 -64 81 -116 9 -29
23 -53 30 -53 32 0 3 91 -62 190 -25 39 -45 74 -45 77 0 14 94 -84 121 -126
37 -58 37 -45 -2 36 -65 137 -198 269 -384 383 l-70 42 55 -5 c31 -3 88 -16
128 -29 l73 -25 18 41 c41 92 154 216 322 352 90 74 228 174 239 174 5 0 41
-81 80 -180 168 -429 171 -457 70 -825 -16 -60 -30 -115 -30 -121 0 -6 32 -32
70 -59 95 -64 215 -177 247 -232 29 -50 115 -306 104 -311 -4 -1 -33 7 -64 17
-31 11 -57 19 -57 18 0 -2 16 -40 35 -86 35 -81 75 -222 75 -258 0 -10 -17 25
-38 77 -39 99 -111 248 -123 256 -4 2 2 -24 13 -59 34 -108 78 -298 88 -382 8
-69 7 -92 -11 -165 -22 -93 -27 -102 -111 -209 -72 -90 -92 -128 -119 -228
-25 -94 -52 -143 -120 -217 -64 -71 -86 -74 -25 -4 62 71 102 150 115 232 14
80 46 152 98 222 34 46 32 45 -36 -21 -61 -59 -80 -87 -126 -180 -29 -60 -76
-142 -104 -182 -62 -88 -212 -246 -295 -312 -60 -47 -267 -173 -274 -167 -2 2
26 62 61 132 81 163 113 243 132 336 20 91 55 332 55 377 0 78 129 294 276
465 l78 89 -45 -7 c-85 -13 -238 -130 -314 -240 -21 -31 -40 -54 -42 -52 -7 7
21 62 66 126 49 71 39 66 -62 -30 l-59 -55 -84 89 c-46 50 -84 88 -84 85 0
-20 37 -109 56 -134 61 -81 119 -258 112 -341 -3 -36 -5 -32 -26 46 -13 47
-29 96 -37 110 -14 24 -14 24 -7 -10 20 -98 -2 -271 -42 -325 -13 -18 -13 -13
0 40 7 33 14 80 14 105 l0 45 -22 -45 c-31 -63 -122 -151 -193 -186 -77 -37
-176 -41 -241 -8 l-42 20 -38 -20 c-30 -16 -57 -21 -114 -21 -65 1 -83 5 -137
33 -77 39 -158 120 -189 186 l-24 51 0 -36 c0 -35 14 -125 26 -163 4 -12 2
-16 -5 -12 -6 4 -20 39 -32 78 -23 74 -29 179 -16 253 6 35 4 33 -18 -20 -13
-33 -27 -79 -31 -103 -11 -73 -27 -62 -19 14 9 89 37 174 80 249 43 75 71 132
80 165 5 19 -15 4 -77 -58 l-84 -82 -53 50 c-30 28 -68 60 -84 72 -28 20 -28
20 8 -27 38 -51 75 -117 75 -136 0 -6 -20 15 -43 47 -92 124 -227 227 -313
239 l-49 7 41 -43 c112 -119 227 -279 276 -386 24 -51 34 -94 49 -211 40 -311
67 -406 183 -634 36 -71 63 -128 61 -128 -7 0 -177 100 -233 137 -75 50 -242
218 -321 323 -35 47 -88 135 -117 196 -41 85 -69 127 -120 183 -37 39 -69 70
-71 67 -2 -2 12 -26 31 -54 49 -67 73 -126 90 -215 18 -91 40 -136 107 -219
l52 -63 -61 59 c-73 71 -105 128 -127 223 -18 78 -65 164 -132 242 -24 27 -51
64 -62 83 -26 45 -51 149 -51 213 0 72 32 236 75 381 19 65 33 119 31 121 -7
7 -86 -155 -122 -249 -41 -107 -49 -119 -39 -63 11 61 54 193 86 263 15 34 26
62 25 62 -2 0 -29 -9 -61 -20 -32 -11 -60 -18 -62 -16 -8 7 68 238 95 291 31
62 120 151 235 234 48 35 87 70 87 78 0 18 -35 157 -60 241 -48 157 -45 291
11 457 55 162 163 425 173 425 6 0 70 -44 141 -97z m911 -656 c36 -14 101 -63
69 -52 -75 25 -139 12 -179 -36 -93 -110 15 -273 152 -231 52 16 50 8 -3 -24
-94 -54 -191 -36 -259 49 -28 35 -31 45 -31 112 0 67 3 77 31 112 56 70 144
99 220 70z m-601 -701 c28 -13 72 -40 99 -59 l49 -35 -39 -11 c-21 -6 -64 -13
-95 -17 -67 -8 -120 13 -189 74 l-45 40 50 15 c71 22 113 20 170 -7z m1270 4
l30 -12 -54 -49 c-74 -66 -104 -75 -208 -59 -46 7 -85 16 -88 20 -6 10 96 83
148 106 36 16 123 13 172 -6z m-1057 -1379 c93 -65 160 -75 264 -40 l60 20 61
-20 c93 -32 139 -28 226 20 l74 40 -6 -61 c-3 -33 -13 -75 -24 -92 -22 -40
-95 -78 -210 -109 -105 -28 -184 -23 -308 21 -108 39 -140 60 -154 103 -14 44
-25 137 -16 137 4 0 19 -8 33 -19z m116 -602 c49 -28 125 -28 172 2 l36 22 38
-22 c51 -28 132 -29 179 0 l34 21 -6 -94 c-8 -132 -33 -204 -101 -287 -30 -38
-76 -86 -102 -107 l-47 -39 -92 97 c-101 105 -125 150 -145 270 -10 64 -14
158 -6 158 3 0 21 -9 40 -21z m-179 -181 l51 -10 17 -60 c25 -86 76 -160 180
-262 97 -95 93 -102 -23 -39 -81 44 -162 109 -218 176 -44 53 -105 154 -117
196 -8 26 -15 26 110 -1z m885 12 c0 -25 -74 -153 -119 -208 -56 -67 -150
-141 -231 -182 -102 -51 -103 -44 -6 52 105 104 149 167 173 248 9 30 19 58
23 62 5 7 116 34 148 37 6 1 12 -4 12 -9z"/>
<path d="M2355 2044 c-80 -29 -105 -76 -84 -159 14 -56 39 -74 150 -110 73
-23 79 -23 134 -9 31 8 81 26 110 38 48 22 53 27 64 69 6 25 11 58 11 72 0 36
-55 90 -105 104 -57 16 -232 13 -280 -5z m212 -24 c26 -6 59 -20 73 -31 l25
-21 -25 7 c-47 13 -195 17 -240 6 -54 -12 -60 -8 -26 15 50 32 116 40 193 24z"/>
</g>
</svg>
