<?xml version="1.0" standalone="no"?>
<!DOCTYPE svg PUBLIC "-//W3C//DTD SVG 20010904//EN"
 "http://www.w3.org/TR/2001/REC-SVG-20010904/DTD/svg10.dtd">
<svg version="1.0" xmlns="http://www.w3.org/2000/svg"
 width="1500.000000pt" height="1500.000000pt" viewBox="0 0 1500.000000 1500.000000"
 preserveAspectRatio="xMidYMid meet">
<metadata>
Created by potrace 1.16, written by Peter Selinger 2001-2019
</metadata>
<g transform="translate(0.000000,1500.000000) scale(0.100000,-0.100000)"
fill="#000000" stroke="none">
<path d="M0 7500 l0 -7500 7500 0 7500 0 0 7500 0 7500 -7500 0 -7500 0 0
-7500z m6384 5186 c115 -155 259 -368 340 -502 169 -279 248 -361 429 -448
138 -66 206 -81 372 -80 131 0 146 2 235 33 119 40 212 95 295 173 75 70 117
130 249 362 53 93 109 185 124 205 36 49 202 238 244 278 l33 32 108 -85 c186
-147 273 -247 406 -467 230 -381 348 -776 380 -1262 13 -206 23 -231 157 -381
127 -143 252 -307 340 -446 120 -190 258 -493 300 -661 21 -79 15 -190 -13
-243 l-20 -38 34 -82 c67 -165 77 -219 77 -424 0 -170 -2 -193 -27 -290 -35
-133 -81 -249 -167 -420 -308 -618 -759 -1193 -1235 -1574 -221 -177 -342
-262 -442 -309 -82 -38 -146 -38 -211 -2 l-44 25 -206 -144 c-235 -164 -394
-262 -535 -332 l-97 -48 -87 43 c-188 93 -404 227 -643 401 -58 42 -110 79
-117 83 -6 4 -29 -2 -51 -13 -22 -12 -63 -24 -90 -29 -49 -8 -55 -6 -161 50
-213 110 -412 269 -707 564 -304 303 -508 562 -724 920 -78 130 -257 489 -318
637 -77 187 -95 274 -90 428 4 120 7 132 60 292 48 144 54 169 41 180 -23 18
-56 90 -55 118 1 45 52 230 99 360 113 316 305 630 564 922 151 171 173 226
189 478 21 316 84 588 197 855 82 192 236 455 347 591 58 71 336 324 357 324
4 0 33 -34 63 -74z m-2424 -7486 c149 -24 253 -107 292 -233 37 -125 29 -183
-127 -857 -140 -608 -157 -668 -222 -793 -53 -103 -183 -232 -283 -281 -128
-62 -311 -83 -450 -50 -216 51 -315 243 -266 519 37 213 275 1214 306 1288 57
138 142 245 251 318 122 81 322 116 499 89z m1260 -1 c181 -29 277 -125 299
-296 10 -83 -2 -242 -25 -325 -5 -17 -25 -18 -230 -18 -210 0 -225 1 -220 18
2 9 12 52 21 95 16 71 16 79 1 102 -24 36 -102 36 -145 0 -39 -33 -58 -111
-42 -170 15 -56 30 -77 185 -270 219 -271 251 -342 243 -545 -4 -100 -11 -145
-34 -225 -125 -419 -319 -595 -658 -595 -168 0 -304 45 -369 122 -93 108 -98
273 -20 606 l26 112 214 0 c165 0 214 -3 214 -12 0 -7 -14 -69 -30 -138 -38
-159 -45 -218 -28 -250 24 -44 106 -44 154 1 67 63 88 294 35 397 -11 21 -83
120 -161 222 -192 250 -220 309 -220 470 0 234 128 494 300 608 133 89 306
121 490 91z m5461 -3 c127 -27 215 -93 263 -195 18 -40 21 -63 20 -181 l0
-135 -127 -550 c-70 -302 -137 -584 -148 -625 -28 -104 -86 -223 -147 -302
-29 -37 -52 -69 -52 -71 0 -3 34 -30 75 -61 48 -36 73 -61 68 -69 -14 -25
-197 -247 -203 -247 -3 1 -70 52 -149 114 -144 112 -145 113 -185 105 -101
-20 -242 -2 -327 42 -62 31 -125 101 -149 165 -27 73 -35 181 -21 274 18 114
268 1198 295 1276 89 262 266 422 514 464 76 13 202 11 273 -4z m-7611 -18 c0
-20 -379 -1658 -397 -1713 -55 -175 -197 -347 -350 -423 -114 -56 -211 -76
-332 -69 -210 12 -340 102 -388 267 -24 81 -13 168 61 490 36 156 66 288 66
292 0 4 97 8 215 8 185 0 215 -2 215 -15 0 -8 -27 -134 -60 -279 -33 -145 -60
-275 -60 -289 0 -85 122 -94 175 -14 11 17 415 1725 415 1754 0 2 99 3 220 3
166 0 220 -3 220 -12z m3666 -5 c-3 -10 -21 -90 -41 -178 -20 -88 -40 -177
-46 -197 l-10 -38 -214 0 -214 0 -10 -37 c-6 -21 -26 -108 -46 -193 -20 -85
-38 -163 -41 -172 -5 -17 9 -18 200 -18 145 0 206 -3 206 -11 0 -9 -54 -255
-85 -386 -5 -23 -6 -23 -213 -23 l-208 0 -54 -232 c-29 -128 -55 -241 -58
-250 -4 -17 12 -18 228 -18 216 0 231 -1 226 -17 -3 -10 -24 -99 -46 -198 -22
-99 -43 -188 -46 -197 -5 -17 -36 -18 -460 -18 -429 0 -455 1 -450 18 3 9 116
499 251 1087 135 589 248 1076 250 1083 3 9 101 12 445 12 416 0 441 -1 436
-17z m1340 0 c-3 -10 -96 -412 -206 -893 -111 -481 -203 -885 -207 -897 l-5
-23 227 0 227 0 -6 -22 c-3 -13 -22 -96 -43 -185 l-37 -163 -448 0 c-423 0
-449 1 -444 18 3 9 116 499 251 1087 135 589 248 1076 250 1083 3 9 57 12 225
12 206 0 221 -1 216 -17z m1044 4 c0 -8 -84 -373 -186 -813 -108 -466 -188
-830 -191 -874 -5 -67 -3 -77 15 -93 27 -25 87 -24 121 0 14 11 36 41 49 67
14 29 98 372 213 869 104 452 192 830 195 840 5 15 24 17 220 17 201 0 215 -1
210 -17 -3 -10 -89 -380 -191 -823 -102 -443 -194 -835 -205 -871 -38 -128
-106 -245 -189 -329 -132 -134 -285 -188 -501 -177 -180 9 -278 61 -340 181
l-35 69 0 141 1 141 192 830 c106 457 195 836 197 843 7 18 425 18 425 -1z
m2605 -14 c-4 -16 -90 -388 -191 -827 -121 -522 -186 -821 -187 -862 -2 -84
12 -99 96 -95 40 1 81 49 104 119 11 31 105 425 209 875 l189 817 212 0 c117
0 213 -3 213 -7 0 -26 -385 -1675 -405 -1732 -103 -305 -301 -463 -597 -478
-169 -9 -276 19 -358 93 -86 78 -122 209 -102 371 6 48 96 461 201 916 105
456 191 831 191 833 0 2 97 4 216 4 l216 0 -7 -27z m1755 20 c0 -5 -21 -101
-47 -215 l-47 -208 -216 0 -216 0 -47 -202 c-26 -112 -47 -206 -47 -210 0 -5
92 -8 205 -8 l205 0 -6 -27 c-3 -16 -24 -109 -47 -208 l-42 -180 -207 -3
c-205 -2 -208 -3 -213 -25 -3 -12 -30 -124 -59 -249 l-53 -228 228 0 c126 0
229 -3 229 -7 0 -5 -21 -101 -47 -215 l-47 -208 -453 0 c-259 0 -453 4 -453 9
0 5 113 497 250 1095 138 597 250 1088 250 1091 0 8 880 6 880 -2z m-5954
-2512 c104 -47 132 -173 58 -261 -37 -43 -75 -60 -134 -60 -59 0 -97 17 -134
60 -73 88 -45 214 58 261 52 24 100 24 152 0z m888 -8 c37 -19 37 -19 19 -42
-17 -21 -19 -21 -55 -7 -74 31 -152 10 -128 -34 7 -13 30 -22 80 -30 88 -15
122 -40 122 -92 0 -46 -16 -74 -52 -93 -54 -28 -168 -14 -216 26 -11 9 -10 15
3 35 l15 24 32 -19 c61 -37 137 -35 153 5 10 26 -20 45 -93 60 -102 21 -142
80 -98 143 37 53 140 64 218 24z m-3013 -5 c118 -66 109 -232 -15 -289 -29
-13 -65 -19 -123 -19 l-83 0 0 165 0 165 91 0 c75 0 98 -4 130 -22z m489 -3
c0 -25 0 -25 -95 -25 l-95 0 0 -40 0 -40 60 0 60 0 0 -30 0 -30 -60 0 -60 0 0
-40 0 -40 95 0 95 0 0 -30 0 -30 -130 0 -130 0 0 165 0 165 130 0 130 0 0 -25z
m239 -102 c25 -68 49 -123 52 -123 3 0 28 56 55 125 49 124 49 125 82 125 17
0 32 -3 32 -6 0 -5 -21 -56 -102 -252 l-30 -73 -40 3 -40 3 -64 158 c-35 88
-64 161 -64 164 0 2 16 3 36 1 l36 -3 47 -122z m611 102 c0 -25 0 -25 -95 -25
l-95 0 0 -40 0 -39 63 -3 c59 -3 62 -4 65 -30 l3 -28 -65 0 -66 0 0 -40 0 -40
95 0 95 0 0 -30 0 -30 -130 0 -130 0 0 165 0 165 130 0 130 0 0 -25z m220
-110 l0 -135 90 0 90 0 0 -30 0 -30 -125 0 -125 0 0 165 0 165 35 0 35 0 0
-135z m1061 106 c38 -39 40 -97 5 -138 -22 -25 -31 -28 -105 -31 l-81 -4 0
-64 0 -64 -35 0 -35 0 0 165 0 165 111 0 c109 0 111 0 140 -29z m639 -28 c26
-126 32 -153 35 -153 4 0 14 30 45 138 20 71 21 72 54 72 33 0 33 -1 55 -81
41 -148 41 -148 65 -29 l22 105 32 3 c17 2 32 -1 32 -6 0 -8 -41 -194 -65
-299 -4 -18 -12 -23 -40 -23 -37 0 -32 -12 -88 184 -7 27 -16 45 -19 40 -3 -5
-18 -57 -34 -116 l-29 -108 -36 0 -36 0 -32 148 c-18 81 -35 155 -37 165 -4
14 1 17 30 17 34 0 35 -1 46 -57z m740 32 c0 -25 0 -25 -95 -25 l-95 0 0 -40
0 -39 63 -3 c59 -3 62 -4 65 -30 l3 -28 -65 0 -66 0 0 -40 0 -40 95 0 95 0 0
-30 0 -30 -130 0 -130 0 0 165 0 165 130 0 130 0 0 -25z m391 -4 c35 -35 38
-79 9 -106 -20 -18 -20 -18 5 -43 15 -15 25 -36 25 -54 0 -73 -46 -98 -185
-98 l-95 0 0 165 0 165 106 0 c103 0 106 -1 135 -29z"/>
<path d="M6197 12456 c-135 -123 -277 -329 -393 -571 -140 -295 -207 -566
-234 -945 -16 -233 -52 -328 -182 -479 -346 -399 -515 -692 -630 -1090 -42
-145 -40 -161 13 -161 62 0 57 -40 -48 -340 -47 -134 -47 -136 -47 -260 0
-110 4 -135 29 -210 l28 -85 10 40 c22 98 74 240 135 368 36 75 66 136 68 135
1 -2 -9 -48 -22 -103 -36 -147 -57 -325 -52 -436 3 -53 8 -101 12 -108 5 -8
46 28 123 109 64 66 117 119 119 118 2 -2 -13 -53 -32 -113 -53 -168 -68 -256
-54 -313 6 -26 19 -63 29 -81 l19 -35 20 40 c11 21 44 62 74 90 56 54 138 117
145 110 2 -2 -12 -56 -31 -120 -20 -63 -45 -162 -57 -218 -19 -94 -20 -113 -9
-208 20 -185 37 -248 85 -315 280 -393 767 -856 1090 -1036 l60 -33 -101 99
c-55 55 -122 131 -149 168 -64 91 -136 218 -129 229 3 5 30 -24 59 -63 70 -94
189 -224 257 -280 60 -49 65 -59 -49 86 -69 87 -139 207 -163 281 -12 36 -20
67 -19 68 2 2 54 -53 114 -122 61 -69 175 -191 255 -272 123 -125 173 -167
335 -281 228 -161 398 -268 535 -338 l101 -52 107 56 c182 96 692 444 790 538
52 51 298 316 395 427 44 51 48 53 42 25 -13 -58 -105 -231 -170 -320 l-66
-90 91 94 c50 52 118 130 151 174 75 101 79 74 7 -46 -72 -121 -165 -235 -261
-319 -45 -39 -86 -75 -92 -80 -26 -24 79 30 150 77 362 240 743 607 1022 985
64 87 72 103 87 175 46 229 40 319 -39 586 -19 64 -35 119 -35 123 0 4 27 -12
61 -35 71 -51 156 -140 165 -175 10 -37 21 -29 45 34 36 93 25 177 -50 408
l-28 89 122 -129 c67 -71 125 -124 128 -119 4 6 9 45 13 89 8 96 -9 261 -41
409 -14 61 -27 121 -30 135 -12 59 128 -246 161 -350 20 -63 39 -122 42 -130
3 -8 14 19 25 60 15 59 20 109 20 230 0 178 -13 243 -81 395 -51 113 -53 130
-19 180 35 53 41 90 27 161 -26 131 -155 417 -274 614 -76 125 -232 330 -345
455 -149 164 -172 225 -190 505 -25 376 -108 681 -273 1000 -127 247 -262 429
-394 531 l-57 44 -38 -45 c-22 -25 -39 -53 -39 -63 0 -56 -95 -377 -112 -377
-10 0 -11 -18 12 145 10 76 18 141 16 142 -5 5 -62 -87 -79 -127 -8 -19 -20
-66 -26 -105 -13 -88 -51 -215 -64 -215 -6 0 -7 30 -3 80 4 44 5 80 3 80 -6 0
-77 -119 -77 -130 0 -48 -107 -317 -121 -303 -4 4 -1 42 7 83 8 41 14 79 14
84 0 4 -24 -14 -54 -41 -198 -181 -482 -275 -741 -244 -204 24 -419 121 -557
250 -77 72 -78 71 -54 -54 8 -38 11 -74 7 -78 -15 -15 -121 257 -121 308 0 16
-69 145 -77 145 -3 0 -2 -40 2 -90 5 -63 4 -90 -4 -90 -6 0 -11 2 -11 5 0 3
-11 42 -24 89 -14 46 -29 115 -34 154 -9 59 -18 82 -53 132 -23 33 -43 59 -45
57 -2 -1 6 -61 16 -132 23 -153 22 -145 11 -145 -13 0 -77 206 -102 325 -14
68 -28 110 -45 132 -14 18 -27 33 -29 33 -3 0 -46 -38 -98 -84z m64 -638 c301
-228 513 -447 591 -608 17 -36 32 -66 33 -68 1 -1 49 13 106 32 97 33 257 62
269 49 3 -3 0 -7 -5 -10 -28 -9 -168 -97 -242 -150 -174 -124 -320 -278 -400
-420 -35 -63 -87 -192 -81 -199 2 -1 19 27 37 63 20 38 67 100 115 150 84 89
112 97 54 15 -84 -116 -136 -224 -152 -314 -6 -35 -5 -38 17 -38 21 0 26 8 41
63 10 34 28 80 41 102 25 43 91 112 100 104 2 -3 -11 -34 -29 -70 -36 -67 -64
-174 -53 -202 13 -34 33 -16 51 43 10 33 22 60 27 60 4 0 9 -30 11 -67 3 -64
4 -67 38 -86 65 -36 100 -68 124 -115 l24 -47 16 37 c18 42 21 126 6 177 -18
65 8 50 76 -41 107 -145 115 -326 22 -513 -16 -33 -31 -61 -32 -63 -2 -1 -67
40 -144 91 -153 102 -281 170 -352 186 -41 10 -50 8 -100 -17 -69 -35 -270
-182 -270 -197 0 -27 157 -196 219 -236 l45 -29 240 0 c270 0 308 -6 336 -52
28 -46 42 -152 38 -288 -1 -66 -3 -120 -2 -120 1 0 34 41 74 92 164 205 322
468 337 563 7 45 19 45 26 0 15 -94 170 -354 331 -557 43 -54 78 -98 79 -98 1
0 1 55 -1 122 -6 211 22 307 95 327 22 6 140 11 277 11 237 0 240 0 282 25 44
26 192 178 215 222 15 28 27 16 -130 131 -47 34 -108 73 -136 87 -44 21 -55
23 -95 14 -70 -16 -199 -83 -352 -186 -77 -51 -142 -92 -144 -91 -1 2 -16 30
-32 63 -93 187 -85 368 22 513 68 91 94 106 76 41 -15 -51 -12 -135 6 -177
l16 -37 24 47 c24 47 59 79 124 115 34 19 35 22 38 86 2 37 7 67 11 67 5 0 17
-27 27 -60 17 -59 38 -77 51 -45 10 28 -18 139 -53 204 -18 36 -31 67 -29 70
8 7 63 -49 95 -97 15 -23 36 -71 45 -107 16 -57 21 -65 41 -65 13 0 24 2 24 5
0 2 -5 28 -11 57 -13 64 -63 166 -130 264 -27 40 -49 79 -49 86 0 21 129 -113
176 -183 24 -37 44 -71 44 -77 0 -6 5 -14 10 -17 6 -3 -1 23 -13 59 -55 151
-173 311 -329 446 -85 74 -273 204 -340 236 -21 10 -38 21 -38 26 0 18 176
-14 287 -53 45 -16 83 -29 86 -29 2 0 12 19 21 43 52 137 258 361 526 575 137
109 325 241 332 234 11 -12 153 -368 221 -557 90 -248 101 -304 94 -474 -4
-102 -11 -159 -30 -226 -52 -189 -118 -447 -115 -450 2 -1 30 -20 63 -42 211
-142 379 -301 434 -412 25 -48 125 -341 145 -423 l6 -27 -95 34 c-53 19 -98
35 -100 35 -2 0 12 -34 31 -76 19 -42 50 -119 68 -173 29 -82 42 -132 72 -281
11 -51 -15 -4 -49 90 -19 52 -52 133 -72 180 -36 82 -126 252 -131 247 -1 -1
22 -85 51 -187 65 -226 104 -410 112 -533 5 -82 2 -108 -21 -202 -35 -138 -45
-157 -154 -289 -115 -140 -155 -215 -193 -363 -32 -127 -55 -174 -130 -269
-54 -69 -138 -149 -146 -140 -3 3 12 25 33 48 119 129 175 235 199 377 20 120
60 215 136 320 l60 84 -51 -43 c-56 -47 -148 -152 -186 -211 -13 -21 -36 -69
-51 -106 -78 -196 -241 -415 -478 -641 -63 -60 -147 -132 -187 -159 -73 -50
-346 -213 -358 -213 -3 0 42 96 100 213 58 116 121 250 139 297 42 106 92 349
120 585 12 99 26 205 31 235 27 146 206 423 466 718 l47 52 -44 0 c-60 -1
-104 -18 -190 -76 -92 -60 -263 -229 -315 -309 -21 -33 -40 -62 -41 -64 -2 -2
-5 -2 -8 1 -15 14 62 151 147 263 l23 30 -35 -25 c-19 -13 -75 -63 -125 -111
l-90 -86 -125 133 c-69 73 -126 131 -127 130 -10 -10 55 -162 93 -218 90 -134
150 -308 161 -462 7 -108 -6 -106 -32 4 -19 81 -74 234 -82 227 -2 -3 1 -25 8
-48 21 -74 16 -262 -9 -352 -21 -75 -71 -185 -72 -160 0 6 9 49 20 95 11 46
20 114 20 152 l0 69 -36 -72 c-91 -182 -308 -330 -485 -331 -68 0 -155 24
-203 55 -24 16 -27 16 -58 -3 -50 -30 -135 -52 -202 -52 -172 1 -397 157 -482
334 l-34 70 0 -69 c0 -39 9 -107 20 -153 11 -46 20 -89 20 -95 -1 -25 -51 85
-72 160 -24 88 -30 272 -10 353 6 24 9 46 7 48 -6 7 -63 -154 -80 -228 -26
-110 -39 -112 -32 -4 11 156 70 326 162 465 38 56 102 206 92 215 -1 2 -59
-57 -128 -130 l-126 -133 -89 87 c-49 47 -105 97 -124 110 l-35 25 23 -30 c85
-112 162 -249 147 -263 -3 -3 -6 -3 -8 -1 -1 2 -20 31 -41 64 -51 80 -223 248
-315 309 -87 58 -130 75 -190 76 l-44 0 47 -52 c192 -219 339 -423 412 -575
49 -101 55 -130 79 -338 53 -451 91 -584 283 -960 49 -96 87 -175 84 -175 -14
0 -328 189 -389 233 -104 78 -348 328 -445 457 -93 124 -139 203 -189 320 -17
41 -47 99 -66 128 -40 60 -161 192 -204 223 -24 17 -20 9 22 -48 69 -90 124
-207 144 -302 40 -193 67 -253 170 -376 81 -97 84 -102 44 -72 -20 15 -59 53
-86 85 -101 118 -134 180 -167 327 -30 128 -77 210 -213 373 -82 98 -96 125
-129 257 -32 130 -30 218 11 415 26 123 99 392 130 480 13 38 13 43 1 30 -40
-41 -206 -401 -231 -503 -4 -15 -11 -27 -15 -27 -25 0 65 311 134 463 20 42
33 77 30 77 -3 0 -44 -14 -91 -30 -48 -17 -90 -29 -94 -28 -4 2 24 98 62 215
81 247 105 289 239 417 74 70 270 223 328 255 13 8 -13 120 -105 456 -35 124
-43 329 -18 441 24 110 179 534 284 777 l21 49 68 -48 c37 -26 119 -87 183
-136z m1356 -968 c28 -12 66 -37 84 -57 l34 -35 -42 21 c-142 71 -313 -35
-313 -194 0 -159 163 -261 310 -194 l45 20 -30 -31 c-80 -83 -224 -108 -330
-55 -174 85 -220 306 -93 450 88 99 213 128 335 75z m-922 -1045 c72 -33 220
-133 212 -142 -11 -11 -129 -33 -209 -39 -81 -6 -91 -5 -140 19 -51 26 -178
130 -178 147 0 19 167 60 215 53 17 -3 62 -20 100 -38z m1815 30 c66 -12 131
-37 127 -48 -6 -20 -137 -125 -181 -147 -52 -25 -123 -26 -237 -4 -120 23
-121 24 -56 72 110 82 253 147 297 137 8 -2 31 -6 50 -10z m-1496 -2095 c24
-17 75 -45 113 -62 90 -43 153 -42 281 1 l92 32 92 -32 c129 -43 192 -43 281
-1 38 17 89 45 113 62 25 16 48 30 51 30 9 0 -5 -151 -18 -190 -22 -65 -49
-91 -133 -131 -199 -92 -380 -119 -541 -79 -114 28 -239 75 -289 109 -46 30
-72 76 -86 150 -10 55 -14 141 -6 141 3 0 25 -14 50 -30z m132 -881 c3 -6 30
-22 58 -35 88 -41 188 -27 279 38 14 10 20 10 35 0 51 -37 120 -62 172 -62 56
0 127 26 162 57 10 9 21 13 25 9 12 -11 -15 -255 -37 -341 -11 -44 -35 -104
-53 -134 -39 -66 -263 -301 -286 -301 -24 0 -231 213 -279 287 -24 38 -48 93
-60 140 -21 78 -42 236 -42 313 0 39 12 52 26 29z m-198 -300 c32 -6 52 -16
52 -24 0 -44 56 -183 102 -252 50 -74 220 -256 303 -323 33 -27 36 -31 15 -25
-47 12 -209 94 -270 135 -88 60 -194 163 -261 253 -58 77 -123 197 -135 248
l-6 27 74 -14 c40 -8 97 -19 126 -25z m1274 -48 c-60 -141 -192 -307 -331
-412 -63 -47 -258 -151 -311 -164 -21 -6 -19 -2 15 26 81 67 189 176 252 254
71 89 113 168 139 265 10 36 18 66 20 68 5 8 239 48 242 41 2 -4 -10 -39 -26
-78z"/>
<path d="M7321 8494 c-113 -30 -180 -93 -181 -168 0 -44 30 -149 49 -168 21
-21 118 -61 225 -92 l85 -25 73 20 c83 23 192 65 225 87 25 15 63 122 63 173
0 79 -68 143 -185 173 -77 21 -279 20 -354 0z m304 -56 c43 -10 115 -53 115
-67 0 -5 -21 -3 -47 5 -122 37 -286 37 -393 -1 -50 -18 -52 -3 -2 29 33 22 82
38 152 50 32 5 124 -3 175 -16z"/>
<path d="M3666 4770 c-20 -18 -41 -50 -50 -78 -29 -85 -277 -1174 -278 -1221
-2 -76 18 -98 87 -93 72 6 101 64 163 332 222 946 242 1046 210 1078 -7 7 -31
12 -55 12 -33 0 -50 -7 -77 -30z"/>
<path d="M10371 4775 c-16 -14 -39 -49 -49 -78 -11 -29 -77 -299 -147 -602
-158 -680 -161 -717 -60 -717 53 0 86 29 114 98 32 80 281 1155 283 1224 3 78
-12 100 -67 100 -32 0 -51 -7 -74 -25z"/>
<path d="M7393 2610 c-90 -55 -49 -200 57 -200 44 0 82 27 100 70 27 66 -29
150 -100 150 -14 0 -39 -9 -57 -20z"/>
<path d="M5250 2521 l0 -111 43 0 c88 0 144 70 113 143 -18 44 -49 65 -109 73
l-47 7 0 -112z"/>
</g>
</svg>
